<svg width="2369" height="1748" xmlns="http://www.w3.org/2000/svg" xmlns:xlink="http://www.w3.org/1999/xlink" xml:space="preserve" overflow="hidden"><g transform="translate(-1016 -317)"><path d="M1019.5 413.921C1019.5 362.326 1061.33 320.5 1112.92 320.5L3288.08 320.5C3339.67 320.5 3381.5 362.326 3381.5 413.921L3381.5 1968.08C3381.5 2019.67 3339.67 2061.5 3288.08 2061.5L1112.92 2061.5C1061.33 2061.5 1019.5 2019.67 1019.5 1968.08Z" stroke="#000000" stroke-width="6.875" stroke-miterlimit="8" fill="#F2F2F2" fill-rule="evenodd"/><text font-family="Avenir Next LT Pro,Avenir Next LT Pro_MSFontService,sans-serif" font-weight="400" font-size="128" transform="matrix(1 0 0 1 1782.06 1643)">Upload Image</text><path d="M2006.49 1029.74 2167.74 1029.74 2167.74 868.487 2233.26 868.487 2233.26 1029.74 2394.51 1029.74 2394.51 1095.26 2233.26 1095.26 2233.26 1256.51 2167.74 1256.51 2167.74 1095.26 2006.49 1095.26Z" stroke="#000000" stroke-width="6.875" stroke-miterlimit="8" fill-rule="evenodd"/></g></svg>