<svg width="2425" height="1914" xmlns="http://www.w3.org/2000/svg" xmlns:xlink="http://www.w3.org/1999/xlink" xml:space="preserve" overflow="hidden"><g transform="translate(-968 -281)"><path d="M970.5 601.673C970.5 425.951 1112.95 283.5 1288.67 283.5L3072.33 283.5C3248.05 283.5 3390.5 425.951 3390.5 601.673L3390.5 1874.33C3390.5 2050.05 3248.05 2192.5 3072.33 2192.5L1288.67 2192.5C1112.95 2192.5 970.5 2050.05 970.5 1874.33Z" stroke="#172C51" stroke-width="4.58333" stroke-miterlimit="8" fill="#D9D9D9" fill-rule="evenodd"/><text font-family="Malgun Gothic,Malgun Gothic_MSFontService,sans-serif" font-weight="400" font-size="147" transform="matrix(1 0 0 1 1728 1604)">이미지</text><text font-family="Malgun Gothic,Malgun Gothic_MSFontService,sans-serif" font-weight="400" font-size="147" transform="matrix(1 0 0 1 2219.56 1604)">업로드</text><path d="M1953.5 992.196 2194.2 992.196 2194.2 751.5 2206.8 751.5 2206.8 992.196 2447.5 992.196 2447.5 1002.8 2206.8 1002.8 2206.8 1243.5 2194.2 1243.5 2194.2 1002.8 1953.5 1002.8Z" stroke="#000000" stroke-width="4.58333" stroke-miterlimit="8" fill-rule="evenodd"/></g></svg>